<svg version="1.1" id="Calque_1" xmlns="http://www.w3.org/2000/svg" x="0px" y="0px" viewBox="0 0 1080 1080" style="enable-background:new 0 0 1080 1080" xml:space="preserve"><style>.st0{fill:#477FC0}.st1{fill:#D52C2D}.st2{fill:#FFFFFF}.st3{fill:#3B3C8F}</style><path class="st0" d="M733.84,214.44l-4.87,0.44c0,0-102.49,8.14-142.37,14.79c-39.9,6.65-147.27,24.25-178.17,27.35 c-30.89,3.1-129.65,12.34-201.26-0.61c-20.88-3.77-43.48-9.82-62.7-15.71c-35.77,15.16-66.05,20.43-88.81,21.55 c-9.07,0.44-16.94,0.22-23.5-0.3c8.92,5.99,18.68,12,28.99,17c10.54,5.11,25.31,11.93,43.67,18.78 c33.29,12.41,78.36,24.9,131.43,27.32c82.36,3.76,210.33-17.58,263.06-29.13c34.37-7.54,97.46,76.52,162.33,88.65 c21.03,3.93,34.62,20.48,42.13,34.43C749.68,377.63,853.14,297.15,989,268.63C943.01,243.52,855.96,208.7,733.84,214.44"/><path class="st0" d="M498.03,440.72l-100.15-0.23l25.8-62.58c-5.35,0-11.11-0.02-17.14-0.04l-26.99,62.69l-17.42-0.06 c0,0-134.98-0.31-158.43-0.37c-17.96-0.16-33.75-7.89-45.54-19.56c-11.75-11.67-19.97-28.39-19.95-47.45 c0.02-7.4,1.31-15,3.95-22.37c11.63-33.26,35.04-52.64,54.42-61.76c19.47-9.32,35.06-10.13,37.32-10.3l0.67-0.03l506.53,1.19 l-0.04,14.86l5.92-6.33l7.86-8.39l98.51,0.23l-0.54,161.31l-103.98-0.06l0.05-22.6l-26.85,22.39l-81.42-0.18l0.04-18.51 l-20.24,18.55"/><path class="st1" d="M1046.17,258.7h-0.03c0,0-106.81-85.02-294.42-72.21l-4.85,0.53c0,0-102.31,10.29-142.04,17.79 c-39.75,7.48-146.74,27.34-177.55,31.1c-30.83,3.75-129.36,15.09-201.22,3.64c-21.25-3.39-39.6-7.6-55.15-11.92 c-5.01,2.42-9.58,4.7-13.51,6.66c14.38,4.15,30.99,8.19,49.91,11.62c71.61,12.96,170.36,3.7,201.26,0.61 c30.89-3.1,138.28-20.7,178.16-27.35c39.9-6.65,142.39-14.79,142.39-14.79l4.86-0.44c135.4-6.36,227.73,37.18,268.75,61.99 c14.7-2.65,29.75-4.66,45.12-5.95C1047.29,259.54,1046.74,259.12,1046.17,258.7"/><path class="st2" d="M758.86,289.28l-5.11,5.44l-22.01,23.52l0.07-29.14l-497.06-1.17l-0.4,0.03c-1.45,0.1-15.94,0.83-33.75,9.39 c-17.73,8.4-38.93,25.78-49.71,56.5c-2.29,6.42-3.41,12.96-3.41,19.3c-0.04,16.33,7.02,30.72,17.22,40.87 c10.22,10.16,23.92,16.75,39.02,16.87c23.44,0.04,158.45,0.36,158.45,0.36l11.31,0.04l26.97-62.67 c13.98,0.03,26.74,0.06,37.05,0.08l-25.81,62.58l100.75,0.23l24.38-62.69l41.19,0.09l-58.93,62.9l97.71,0.05l33.15-30.41 l-0.06,30.38l68.81,0.17l39.48-32.95l-0.07,33.17l85.46,0.03l0.49-142.78"/><polyline class="st2" points="557.68,377.28 544.2,377.2 534.49,402.03"/><path class="st3" d="M235.17,305.09c0,0-49.57,2.38-68.12,54.51c-10.09,28.4,13.25,54.07,36.7,54.13l158.45,0.37l19.75-45.87 l-145.24-0.35c0,0-14.27,0.98-9.64-8.73c4.11-8.61,10.98-8.09,13.33-8.08c1.44,0,84.67,0.2,148.95,0.34l19.8-45.9"/><path class="st3" d="M427.88,305.54l-19.86,45.92c31.67,0.09,55.12,0.13,55.12,0.13l-25.83,62.6l63.39,0.13l24.4-62.7l68.65,0.16 l43.15-45.73"/><polyline class="st3" points="766.29,306.44 714.48,361.8 714.62,306.23 660.23,306.09 617.36,351.83 617.52,351.83 558.65,414.67 610.12,414.7 667.21,362.37 667.08,414.73 712.51,414.84 775.44,362.33 775.3,415.09 826.49,415.1 826.85,306.58"/><g><path class="st0" d="M346.15,570.49c180.33,5.08,392,87.54,589.38,26.24c46.9,18.83,75.12,23.05,112.31,21.26 c-8.91,5.98-18.67,11.99-28.99,17c-51.18,22.96-94.2,42.08-165.22,46.16c-20.96,0.97-34.08,27-58.92,35.11 c-72.77,23.76-174.32,46.1-213.62,37.49c-36.21-5.9-169.82-48.49-204.85,21.29C330.31,733.69,226.86,653.2,91,624.69 C136.98,599.58,224.04,564.75,346.15,570.49"/><path class="st1" d="M33.83,614.76h0.02c243.3-180.53,589.91,44.1,875.24-31.09c5.02,2.43,9.58,4.71,13.51,6.67 C649.26,665.3,312.55,466.69,77.28,621.99c-14.7-2.66-29.77-4.67-45.12-5.95C32.71,615.6,33.26,615.16,33.83,614.76"/><path class="st2" d="M903.02,665.14c-1.76-2.69-4.65-4.43-7.86-4.75c-0.35-0.05-0.72-0.07-1.08-0.07c-2.83,0-5.55,1.13-7.57,3.15 l-22.77,22.76v-12.52c0-4.33-2.61-8.24-6.61-9.89c-1.33-0.56-2.72-0.82-4.1-0.82c-2.79,0-5.53,1.09-7.57,3.15l-22.77,22.76 c-0.44,0.45-0.84,0.93-1.19,1.43v-16.62c0-4.33-2.62-8.24-6.61-9.89c-1.32-0.56-2.71-0.82-4.1-0.82c-2.79,0-5.52,1.09-7.57,3.15 l-22.76,22.76c-2,2.01-3.13,4.73-3.13,7.57v0.74h-55.2v-16.36c0-0.49-0.02-0.98-0.1-1.45l0.38-0.34l14.88-12.83l3.52-3.02 l-3.03-3.53l-6.99-8.11l-3.03-3.52l-3.52,3.04l-5.79,4.99l-3.89-4.51l-3.03-3.52l-3.52,3.04l-14.88,12.82l-3.51,3.03l3.04,3.52 l6.08,7.07l-16.99,14.32c-1.67,1.41-2.86,3.28-3.42,5.35h-32.96v-16.36c0-4.17-2.42-7.96-6.19-9.71c-1.44-0.67-2.98-1-4.51-1 c-2.48,0-4.93,0.87-6.91,2.52l-22.76,19.2c-1.68,1.41-2.87,3.28-3.43,5.35H448.96l32.14-48.2c2.79-4.16,2.3-9.69-1.15-13.31 c-2.08-2.2-4.91-3.33-7.77-3.33c-1.88,0-3.78,0.49-5.48,1.5l-37.48,22.32c-1.46,0.87-2.7,2.07-3.6,3.52L402,697.42 c-0.51-6.31-2.34-13.2-6.81-19.22c-4.7-6.33-14.1-13.86-32.27-14c-0.18-0.01-0.35-0.02-0.53-0.02c-4.03,0-4.87,0-24.01,16.24 c-7.37,6.28-17.3,15.01-25.2,23.04h-10.88c-3.8,0-7.31,2.02-9.23,5.29l-77.36,131.5c-2.44,4.16-1.81,9.43,1.54,12.89 c2.07,2.13,4.86,3.25,7.7,3.25c1.75,0,3.51-0.42,5.12-1.3c1.65-0.9,38.85-21.54,60.42-62.36h53.46c3.48,0,6.71-1.7,8.71-4.53 c1.97,2.97,5.25,4.82,8.84,4.82h221.38l-0.89,0.77l-3.51,3.03l3.02,3.52l6.99,8.11l3.03,3.52l3.53-3.03l5.78-4.99l3.88,4.5 l3.04,3.52l3.51-3.03l14.88-12.83l3.52-3.03l-0.05-0.07H844.1c3.13,0,6.1-1.37,8.15-3.75c0.73-0.86,18.11-21.27,33.31-45.79 C908.11,707.13,913.82,681.5,903.02,665.14z M343.96,782.01h-60.1c-19.64,42.25-58.91,63.67-58.91,63.67l77.35-131.5h15.47 c14.7-15.87,43.91-39.28,44.62-39.28h0.01c39.28,0,27.38,39.28,27.38,39.28L343.96,782.01z"/><path class="st3" d="M894.08,671.03l-23.8,23.8v13.1h-17.25v-34.22l-22.76,22.76v11.45h-19.5v-34.22l-22.76,22.76v11.45H711.4 v-27.07l-22.76,19.19v7.89h-54v-27.07l-22.77,19.19v7.89H428.46l0.89-0.6l42.84-64.26l-37.49,22.32l-73.19,116.93h234.93l3.76-3.25 l2.8,3.25h9.44l3.77-3.25l2.81,3.25H844.1C844.1,782.31,913.72,700.78,894.08,671.03z"/><path class="st3" d="M362.4,674.9c0-0.59-29.75,23.21-44.63,39.28h-15.47l-77.35,131.5c0,0,39.27-21.43,58.91-63.67h60.1 l45.82-67.83C389.79,714.18,401.68,674.9,362.4,674.9z M341.58,713.58c11.9-13.09,13.68-12.49,14.28-13.09 c8.92-1.19,13.09,13.09,13.09,13.09H341.58z"/><polygon class="st3" points="623.12,792.6 616.12,784.49 606.82,792.51 599.91,784.49 585.03,797.31 592.01,805.42 601.32,797.41 608.24,805.42"/><path class="st0" d="M912.56,658.84c-3.68-5.57-9.6-9.16-16.25-9.83c-0.75-0.08-1.49-0.12-2.23-0.12c-5.91,0-11.46,2.31-15.65,6.5 l-6.61,6.6c-2.37-3.82-5.94-6.91-10.32-8.72c-2.69-1.13-5.55-1.69-8.47-1.69c-5.92,0-11.48,2.31-15.67,6.49l-6.44,6.45 c-2.27-4.98-6.37-9.06-11.67-11.24c-2.69-1.13-5.55-1.69-8.47-1.69c-5.92,0-11.49,2.31-15.66,6.49l-22.76,22.76 c-1.48,1.5-2.74,3.16-3.75,4.97h-35.08v-1.25l11.18-9.64l3.53-3.03c4.77-4.12,5.31-11.34,1.19-16.12l-3.03-3.52l-6.99-8.11 l-3.03-3.52c-2.26-2.63-5.45-3.97-8.65-3.97c-2.66,0-5.31,0.93-7.46,2.78L719.6,640c-1.93-1.93-4.49-3.1-7.24-3.32 c-0.29-0.03-0.57-0.04-0.85-0.04c-2.73,0-5.37,0.99-7.46,2.78l-3.51,3.03l-14.89,12.83l-3.51,3.03 c-4.78,4.11-5.31,11.33-1.2,16.11l1.58,1.83l-8.15,6.88c-0.97,0.82-1.87,1.7-2.68,2.66h-14.92v-4.93 c0-8.58-5.02-16.46-12.81-20.08c-2.95-1.36-6.08-2.05-9.33-2.05c-5.22,0-10.29,1.85-14.27,5.22l-22.76,19.19 c-0.98,0.82-1.87,1.7-2.68,2.66H470.31l20.29-30.44c5.77-8.66,4.81-19.99-2.36-27.53c-4.17-4.38-10.02-6.88-16.06-6.88 c-3.98,0-7.9,1.08-11.33,3.11l-37.48,22.3c-3.01,1.8-5.58,4.33-7.44,7.29l-11.32,18.09c-0.08-0.11-0.17-0.23-0.25-0.34 c-6.2-8.37-18.39-18.38-41.15-18.61c-0.28-0.01-0.56-0.02-0.82-0.02c-8.79,0-12.62,3-31.39,18.96 c-6.3,5.35-14.95,12.93-22.54,20.33h-6.16c-7.8,0-15.12,4.17-19.08,10.91l-77.36,131.5c-5.03,8.55-3.72,19.49,3.17,26.63 c4.15,4.28,9.95,6.73,15.91,6.73c3.68,0,7.34-0.93,10.59-2.69c1.62-0.89,38.16-21.14,61.65-60.98h46.77c2.93,0,5.8-0.59,8.44-1.68 c2.83,1.28,5.92,1.99,9.11,1.99h223.37l-6.21-7.22l4.9-4.21H361.51c-3.58,0-6.87-1.85-8.84-4.82c-2,2.83-5.23,4.53-8.71,4.53 H290.5c-21.58,40.82-58.77,61.46-60.42,62.36c-1.61,0.88-3.37,1.3-5.12,1.3c-2.84,0-5.63-1.12-7.7-3.25 c-3.35-3.47-3.98-8.73-1.54-12.89l77.36-131.5c1.93-3.27,5.43-5.29,9.23-5.29h10.88c7.89-8.03,17.82-16.76,25.2-23.04 c19.14-16.24,19.98-16.24,24.01-16.24c0.18,0,0.35,0.01,0.53,0.02c18.18,0.14,27.58,7.67,32.27,14c4.47,6.03,6.3,12.91,6.81,19.22 l23.62-37.72c0.9-1.45,2.14-2.64,3.6-3.52l37.48-22.32c1.7-1.01,3.6-1.5,5.48-1.5c2.86,0,5.69,1.14,7.77,3.33 c3.44,3.62,3.93,9.16,1.15,13.31l-32.14,48.2h152.59c0.55-2.07,1.75-3.95,3.43-5.35l22.76-19.2c1.98-1.65,4.43-2.52,6.91-2.52 c1.53,0,3.07,0.33,4.51,1c3.78,1.75,6.19,5.54,6.19,9.71v16.36h32.96c0.56-2.07,1.75-3.95,3.42-5.35l16.99-14.32l-6.08-7.07 l-3.04-3.52l3.51-3.03L708,651.11l3.52-3.04l3.03,3.52l3.89,4.51l5.79-4.99l3.52-3.04l3.03,3.52l6.99,8.11l3.03,3.53l-3.52,3.02 l-14.88,12.83l-0.38,0.34c0.08,0.47,0.1,0.96,0.1,1.45v16.36h55.2v-0.74c0-2.84,1.13-5.56,3.13-7.57l22.76-22.76 c2.05-2.05,4.79-3.15,7.57-3.15c1.39,0,2.78,0.27,4.1,0.82c4,1.65,6.61,5.55,6.61,9.89v16.62c0.35-0.51,0.76-0.98,1.19-1.43 l22.77-22.76c2.04-2.05,4.79-3.15,7.57-3.15c1.38,0,2.77,0.27,4.1,0.82c4,1.65,6.61,5.55,6.61,9.89v12.52l22.77-22.76 c2.02-2.02,4.75-3.15,7.57-3.15c0.36,0,0.72,0.02,1.08,0.07c3.21,0.32,6.1,2.05,7.86,4.75c10.81,16.36,5.09,41.99-17.46,78.34 c-15.2,24.51-32.58,44.93-33.31,45.79c-2.04,2.38-5.02,3.75-8.15,3.75H629.72l-13.26,11.43H844.1c6.48,0,12.61-2.83,16.83-7.76 c0.76-0.89,18.71-22,34.33-47.19C920.41,708.96,926.06,679.32,912.56,658.84z"/><polygon class="st3" points="734.24,662.73 727.24,654.62 717.93,662.64 711.03,654.62 696.15,667.44 703.15,675.55 712.46,667.54 719.36,675.55"/><path class="st2" d="M341.58,713.58c11.9-13.09,13.68-12.49,14.28-13.08c8.92-1.19,13.09,13.08,13.09,13.08H341.58z"/></g></svg>