<svg fill="none" xmlns="http://www.w3.org/2000/svg" viewBox="0 0 24 24"><g clip-path="url(#a)"><path d="M.5 12a11.5 11.5 0 1 0 23 0 11.5 11.5 0 0 0-23 0" fill="#45AEFF"/><path d="M4 15A11.5 11.5 0 0 1 21 5 11.5 11.5 0 1 0 6.4 22Q4 19 4 15" fill="#DFF9FF"/><path d="M1.9 17.5h7.6m-7-12h19m-9.5 6H.5m10.9 12a11.5 11.5 0 1 1 12.1-12" stroke="#00303E" stroke-linecap="round" stroke-linejoin="round"/><path d="M11.3.5c-6 6.5-6 15 0 23m1.4-23Q16.2 4.2 17 9" stroke="#00303E" stroke-linecap="round" stroke-linejoin="round"/><g clip-path="url(#b)"><path d="M22.3 18.5v-4.8l-.6-.4a17 17 0 0 1-8.6 0l-.4.4v4.8c0 3 3.9 5.3 4.8 5.3 1 0 4.8-2.4 4.8-5.3" fill="#9FEAFF"/><path d="M17.5 13.8a14 14 0 0 1-4.4-.6l-.4.5v4.8c0 3 3.9 5.3 4.8 5.3z" fill="#DFF9FF"/><path d="M22.3 18.5v-4.8l-.6-.4a17 17 0 0 1-8.6 0l-.4.4v4.8c0 3 3.9 5.3 4.8 5.3 1 0 4.8-2.4 4.8-5.3" stroke="#00303E" stroke-linecap="round" stroke-linejoin="round"/><path d="M18.6 16.9a1 1 0 0 1 1.9 0m-6 0a1 1 0 0 1 1.9 0m-.7 2.3a1.8 1.8 0 1 0 3.6 0" stroke="#00303E" stroke-width=".5" stroke-linecap="round" stroke-linejoin="round"/></g></g><defs><clipPath id="a"><path fill="#fff" d="M0 0h24v24H0z"/></clipPath><clipPath id="b"><path fill="#fff" d="M12 13h11v11H12z"/></clipPath></defs></svg>