<svg fill="none" xmlns="http://www.w3.org/2000/svg" viewBox="0 0 408 408"><circle cx="204" cy="204" r="204" fill="#07111E"/><path fill-rule="evenodd" clip-rule="evenodd" d="M140 204a56 56 0 1 0-31 50.1v4.9h31zm-56 24.4a24.4 24.4 0 1 1 0-48.8 24.4 24.4 0 0 1 0 48.8M179 121h-31v83a56 56 0 1 0 31-50.1zm25 107.4a24.4 24.4 0 1 1 0-48.8 24.4 24.4 0 0 1 0 48.8" fill="#F0F0F0"/><path fill-rule="evenodd" clip-rule="evenodd" d="M379.6 197a56 56 0 1 0-.2 15h-32.3a24.4 24.4 0 1 1 .3-15z" fill="#F0F0F0"/></svg>