<?xml version="1.0" encoding="UTF-8"?>
<!DOCTYPE svg PUBLIC "-//W3C//DTD SVG 1.1//EN" "http://www.w3.org/Graphics/SVG/1.1/DTD/svg11.dtd">
<svg xmlns="http://www.w3.org/2000/svg" version="1.1" width="287px" height="106px" style="shape-rendering:geometricPrecision; text-rendering:geometricPrecision; image-rendering:optimizeQuality; fill-rule:evenodd; clip-rule:evenodd" xmlns:xlink="http://www.w3.org/1999/xlink">
<g><path style="opacity:0.889" fill="#0a1dcf" d="M 92.5,-0.5 C 95.8333,-0.5 99.1667,-0.5 102.5,-0.5C 108.274,4.74867 108.94,10.582 104.5,17C 92.1302,21.9668 86.6302,17.8001 88,4.5C 89.025,2.31305 90.525,0.646381 92.5,-0.5 Z"/></g>
<g><path style="opacity:0.938" fill="#0a1ccf" d="M 147.5,-0.5 C 150.167,-0.5 152.833,-0.5 155.5,-0.5C 155.667,18.8362 155.5,38.1695 155,57.5C 149.315,74.593 137.815,80.4263 120.5,75C 119.034,74.3645 117.7,73.5312 116.5,72.5C 112.933,75.0788 108.933,76.5788 104.5,77C 90.1667,77.6667 75.8333,77.6667 61.5,77C 56.9624,76.4878 52.7958,74.9878 49,72.5C 43.6897,76.2447 37.8563,77.578 31.5,76.5C 30.8649,82.5492 30.0316,88.5492 29,94.5C 26.5877,99.7477 22.7544,103.414 17.5,105.5C 15.1667,105.5 12.8333,105.5 10.5,105.5C 10.3334,84.1641 10.5,62.8307 11,41.5C 14.2758,32.3967 20.7758,27.7301 30.5,27.5C 30.3336,36.1731 30.5002,44.8397 31,53.5C 33.6174,57.4759 36.2841,57.4759 39,53.5C 37.5318,38.1472 44.3651,29.4805 59.5,27.5C 59.3336,36.1731 59.5002,44.8397 60,53.5C 60.3742,54.4162 60.8742,55.2496 61.5,56C 75.5,56.6667 89.5,56.6667 103.5,56C 106.838,54.0121 107.172,51.6788 104.5,49C 92.1712,48.5001 79.8378,48.3335 67.5,48.5C 68.312,37.5301 73.9787,30.6968 84.5,28C 96.1667,27.3333 107.833,27.3333 119.5,28C 122.583,28.786 124.749,30.6193 126,33.5C 126.202,40.5496 126.702,47.5496 127.5,54.5C 130.388,57.2625 132.888,56.9291 135,53.5C 135.333,39.1667 135.667,24.8333 136,10.5C 138.412,5.25234 142.246,1.58567 147.5,-0.5 Z"/></g>
<g><path style="opacity:0.945" fill="#0a1dcf" d="M 176.5,-0.5 C 179.167,-0.5 181.833,-0.5 184.5,-0.5C 184.667,20.5026 184.5,41.5026 184,62.5C 180.893,71.1525 174.726,76.1525 165.5,77.5C 164.334,55.5076 164.167,33.5076 165,11.5C 167.691,6.31113 171.524,2.31113 176.5,-0.5 Z"/></g>
<g><path style="opacity:0.907" fill="#0a1dcf" d="M 210.5,-0.5 C 213.167,-0.5 215.833,-0.5 218.5,-0.5C 218.5,2.16667 218.5,4.83333 218.5,7.5C 221.247,7.81335 223.914,7.48002 226.5,6.5C 227.804,3.86993 229.47,1.53659 231.5,-0.5C 234.833,-0.5 238.167,-0.5 241.5,-0.5C 244.666,1.15398 246.333,3.82065 246.5,7.5C 250.514,7.66551 254.514,7.49885 258.5,7C 261.202,4.00472 264.202,1.50472 267.5,-0.5C 270.167,-0.5 272.833,-0.5 275.5,-0.5C 275.5,2.16667 275.5,4.83333 275.5,7.5C 279.167,7.5 282.833,7.5 286.5,7.5C 286.5,32.5 286.5,57.5 286.5,82.5C 284.05,89.7806 279.05,94.614 271.5,97C 202.167,97.5 132.834,97.6667 63.5,97.5C 63.5,96.1667 63.5,94.8333 63.5,93.5C 105.833,93.5 148.167,93.5 190.5,93.5C 190.5,64.8333 190.5,36.1667 190.5,7.5C 194.226,7.82256 197.893,7.48922 201.5,6.5C 203.988,3.43264 206.988,1.09931 210.5,-0.5 Z M 201.5,8.5 C 206.5,8.5 211.5,8.5 216.5,8.5C 216.333,23.837 216.5,39.1703 217,54.5C 220.004,58 223.337,58.3333 227,55.5C 226.716,48.4661 228.049,41.7995 231,35.5C 234.746,30.8774 239.579,28.8774 245.5,29.5C 245.666,38.8393 245.5,48.1726 245,57.5C 242.623,66.2117 237.123,72.0451 228.5,75C 212.356,77.1824 202.522,70.3491 199,54.5C 198.333,42.1667 198.333,29.8333 199,17.5C 199.739,14.4535 200.572,11.4535 201.5,8.5 Z M 227.5,8.5 C 233.5,8.5 239.5,8.5 245.5,8.5C 244.374,16.39 240.041,19.2233 232.5,17C 229.404,14.9713 227.738,12.138 227.5,8.5 Z M 259.5,8.5 C 264.5,8.5 269.5,8.5 274.5,8.5C 274.948,27.2218 274.448,45.8884 273,64.5C 269.764,71.5365 264.264,75.2031 256.5,75.5C 256.333,55.4972 256.5,35.4972 257,15.5C 257.379,12.9699 258.213,10.6365 259.5,8.5 Z"/></g>
<g><path style="opacity:0.754" fill="#0a1dcf" d="M -0.5,97.5 C -0.5,72.5 -0.5,47.5 -0.5,22.5C 1.91656,15.5819 6.58323,10.7486 13.5,8C 36.831,7.50003 60.1643,7.33337 83.5,7.5C 83.5,8.83333 83.5,10.1667 83.5,11.5C 60.8309,11.3334 38.1642,11.5 15.5,12C 10.3333,14.5 6.5,18.3333 4,23.5C 3.50003,46.831 3.33337,70.1643 3.5,93.5C 4.5,93.5 5.5,93.5 6.5,93.5C 6.5,94.8333 6.5,96.1667 6.5,97.5C 4.16667,97.5 1.83333,97.5 -0.5,97.5 Z"/></g>
<g><path style="opacity:0.736" fill="#0a1ccf" d="M 111.5,7.5 C 118.863,7.16941 126.197,7.50274 133.5,8.5C 133.167,9.16667 132.833,9.83333 132.5,10.5C 125.532,11.497 118.532,11.8303 111.5,11.5C 111.5,10.1667 111.5,8.83333 111.5,7.5 Z"/></g>
<g><path style="opacity:0.712" fill="#0a1ccf" d="M 264.5,10.5 C 266.5,10.5 268.5,10.5 270.5,10.5C 270.66,12.1992 270.494,13.8659 270,15.5C 266.167,14 265,15.1667 266.5,19C 268.473,19.4955 270.473,19.6621 272.5,19.5C 272.5,20.8333 272.5,22.1667 272.5,23.5C 267.833,23.5 263.167,23.5 258.5,23.5C 258.5,22.1667 258.5,20.8333 258.5,19.5C 259.5,19.5 260.5,19.5 261.5,19.5C 261.337,17.1432 261.503,14.8098 262,12.5C 262.995,11.9341 263.828,11.2674 264.5,10.5 Z"/></g>
<g><path style="opacity:0.886" fill="#0a1dcf" d="M 54.5,105.5 C 51.1667,105.5 47.8333,105.5 44.5,105.5C 39.953,101.928 38.453,97.2611 40,91.5C 43.7481,85.4578 48.9148,83.9578 55.5,87C 61.0735,93.4856 60.7402,99.6523 54.5,105.5 Z"/></g>
</svg>
