<svg fill="none" xmlns="http://www.w3.org/2000/svg" viewBox="0 0 24 24"><path d="M2.5 12a9.5 9.5 0 1 0 19 0 9.5 9.5 0 0 0-19 0" fill="#9FEAFF"/><path d="M12 15v8.5M19.6 4a11.5 11.5 0 0 1 0 16.3" stroke="#00303E" stroke-linecap="round" stroke-linejoin="round"/><path d="M16.8 6.8a7.5 7.5 0 0 1 0 10.6M4.4 4a11.5 11.5 0 0 0 0 16.3" stroke="#00303E" stroke-linecap="round" stroke-linejoin="round"/><path d="M7.2 6.8a7.5 7.5 0 0 0 0 10.6" stroke="#00303E" stroke-linecap="round" stroke-linejoin="round"/><path d="M9 12a3 3 0 1 0 6 0 3 3 0 0 0-6 0" fill="#45AEFF"/><path d="M9 12v.6a3 3 0 0 0 4.4-3.2A3 3 0 0 0 9 12" fill="#DFF9FF"/><path d="M9 12a3 3 0 1 0 6 0 3 3 0 0 0-6 0" stroke="#00303E" stroke-linecap="round" stroke-linejoin="round"/></svg>