<svg fill="none" xmlns="http://www.w3.org/2000/svg" viewBox="0 0 24 24"><g clip-path="url(#a)"><path d="M.5 12a11.5 11.5 0 1 0 23 0 11.5 11.5 0 0 0-23 0" fill="#DFF9FF"/><path d="M12 18A11.5 11.5 0 0 1 .8 9.4a11.5 11.5 0 1 0 22.4 0A11.5 11.5 0 0 1 12 18" fill="#45AEFF"/><path d="M1.9 17.5h7.6m-7-12h19m-9.5 6H.5m9.9 11.9a11.5 11.5 0 1 1 13-12.9" stroke="#00303E" stroke-linecap="round" stroke-linejoin="round"/><path d="M11.3.5c-5.7 6.1-6 14-1 21.5M12.7.5C15.4 3.3 17 7.1 17.2 11" stroke="#00303E" stroke-linecap="round" stroke-linejoin="round"/><path d="M23 21.4v.6a1.5 1.5 0 0 1-1.5 1.5H14a1.5 1.5 0 0 1-1.5-1.5v-5a1.5 1.5 0 0 1 1.5-1.5h7.5A1.5 1.5 0 0 1 23 17v.6" fill="#DFF9FF"/><path d="M23 21.4v.6a1.5 1.5 0 0 1-1.5 1.5H14a1.5 1.5 0 0 1-1.5-1.5v-5a1.5 1.5 0 0 1 1.5-1.5h7.5A1.5 1.5 0 0 1 23 17v.6" stroke="#00303E" stroke-linecap="round" stroke-linejoin="round"/><path d="m21.3 15.5-1.1-2.3a1 1 0 0 0-1-.3L14 15.5zm2.2 5a1 1 0 0 1-1 1h-2a2 2 0 0 1 0-4h2a1 1 0 0 1 1 1z" fill="#45AEFF" stroke="#00303E" stroke-linecap="round" stroke-linejoin="round"/><path d="M21 19.3a.3.3 0 1 1 0 .5.3.3 0 0 1 0-.5" stroke="#00303E" stroke-linecap="round" stroke-linejoin="round"/></g><defs><clipPath id="a"><path fill="#fff" d="M0 0h24v24H0z"/></clipPath></defs></svg>