<svg fill="none" xmlns="http://www.w3.org/2000/svg" viewBox="0 0 69 69"><path d="M68.424 34.134a33.05 33.05 0 0 1-10.038 24.259 32.9 32.9 0 0 1-24.146 9.868 33.08 33.08 0 0 1-24.203-10.01C-3.313 44.945-3.35 23.336 9.954 9.985l.083-.084A33.08 33.08 0 0 1 34.241.005a32.9 32.9 0 0 1 24.145 10.011 32.94 32.94 0 0 1 10.038 24.118m-2.075 0a33.73 33.73 0 0 0-12.343-14.448 34.5 34.5 0 0 0-19.908-6 34.95 34.95 0 0 0-19.908 6A34.3 34.3 0 0 0 2.018 34.134a35.04 35.04 0 0 0 32.08 20.448 35.3 35.3 0 0 0 32.251-20.448m-13.936 0c-.016 10.03-8.142 18.158-18.172 18.172-10.006-.018-18.103-8.143-18.084-18.148.018-10.006 8.143-18.101 18.147-18.084a18.1 18.1 0 0 1 12.762 5.29 17.26 17.26 0 0 1 5.347 12.77" fill="#000"/></svg>