<svg fill="none" xmlns="http://www.w3.org/2000/svg" viewBox="0 0 512 512"><g clip-path="url(#a)"><path d="M0 0h512v415.3H0z" fill="#036"/><path d="M0 421h512v91H0z" fill="#C20017"/><path d="M512 297.3h-1q-8.4-21-19.2-40.8h6.3q7.5 14.3 13.9 29zM0 56.9A410 410 0 0 1 77.5 39L85 0h60.8l-13.6 35.4q24.5 0 49 2.9L200 0h66.8L235 48.3a410 410 0 0 1 140.3 66.9h-9.6a409 409 0 0 0-134-61.8L193 113.8h-28v41L96 267.5H74V305L3.3 415.3H1.1L178.6 43.6q-24.1-2.9-48.4-2.6L.5 415.3H0zm0 351.5L76.2 44.9A405 405 0 0 0 .3 63.1H0z" fill="#fff"/><path d="M210.5 208.7h37.4v-35h-37.4V157H256l-2.5-35h-81v128.3h38zm158.2 41.2h40.9l18.7-31.5 19 31.5h42l-40.4-66.4 36.3-61.3h-41.4L428 148.8l-16-26.7h-42.1l37.4 61.7zm-47.6 1.4c36.2.5 66-28.3 66.6-64.5a66.8 66.8 0 0 0-133.4 0 65.6 65.6 0 0 0 66.7 64.5m-11.8-92.7c0-6.3 5-11.5 11.4-11.8 6.5.2 11.7 5.3 12 11.8v54.5a11.7 11.7 0 0 1-23.4 0zM219.1 346H258v-25.6h-39v-17.5h47.2v-27.7h-77V395h77.6v-28.9H219zm166.7-70.8L371 343.8l-14.5-68.6h-25.7L317 344.5l-14.4-69.3h-30.5L299.8 395h27.9l13.6-68.7 14 68.7h27.4l27.8-120zM487 329.3c-8-7.3-17.1-9.2-27.4-12.2-12-3.4-18.7-3.7-18.7-10.8.5-5.2 5.1-9 10.3-8.5h.1c7.7-.6 14.8 4.5 16.5 12l26.2-8.7a40 40 0 0 0-40.6-29.8c-27.3 0-44 16.8-44 39.4 0 19.5 11.3 29.1 34 36 13.7 4 20.9 3.7 20.9 12.4 0 4.6-4.3 8.3-11.4 8.3-9.3 1-17.9-5.4-19.5-14.7l-28.7 6.3c4.9 22.8 21.9 36.3 47.9 36.3 12.8.3 25.2-4.8 34-14a39 39 0 0 0 10.1-26.5 33 33 0 0 0-9.8-25.5m-335 6-35.7-59.6H81.6v119.5h30.5v-69.8l40.8 69.6h28.8V275.5h-29.6zM49.2 462.1a7 7 0 0 1 7.7 4.4h17c-1-8-10.2-12.9-24.4-12.9-16.4.2-26.7 7.2-26.7 18.6 0 10.4 10.2 17.1 25.6 17.1 14.3 0 23.6-5 25.4-13.3H56.9q-1.5 4.8-8 4.8-8.6 0-8.7-9c0-6 3.2-9.7 9-9.7m166.1 19.6V469a12 12 0 0 0-3.4-10.6 31 31 0 0 0-19-4.3c-14.8 0-22.8 3.5-24.5 11.3h15.7q1-3.6 8.4-3.7c4.9 0 6.7 1 6.7 2.9v.8c0 2.6-6.4 2-18.4 3.8q-13.8 2-13.8 10.3c0 5.5 6 9.6 16.2 9.6 5.8.2 11.6-1.4 16.5-4.5q.3 1.8.9 3.4h17v-1q-2.1-.9-2.2-5.3m-16.2-5.4c0 3.6-4 5.7-9.8 5.7-3.8 0-6.3-1.6-6.3-4 0-2.2 1.8-3 5.7-3.6q5.3-.5 10.4-1.9zm76.6-22a21 21 0 0 0-15.7 5.3V455h-16.5v33.2h17v-17.8c0-5.7 2.5-8 8.6-8 6.2 0 7.2 2.9 7.2 9v16.7h17v-21.7c-.2-8.4-4.8-12.3-17.4-12.3zm-147.6.4a22 22 0 0 0-16 5.1v-16h-17v44.9h17V471c0-5.7 2.5-8 8.7-8s7.1 3 7.1 9v16.7h17v-22.8c0-7.3-5.8-11.2-16.6-11.2zm227.6-.5a21 21 0 0 0-15.7 5.4V455h-16.3v33.2h17.1v-17.8c0-5.7 2.5-8 8.6-8s7.1 2.9 7.1 9v16.7h17.1v-21.7c-.2-8.4-5-12.3-17.5-12.3zm66.3-.3c-15.8 0-26 6.7-26 17.8s10.4 17.6 26.4 17.6c13.3 0 22.8-4.2 25.6-11.4h-16.3q-1.8 3.6-8.7 3.7-9.2 0-9.3-7.2h35v-2c.2-11.6-10-18.5-26.3-18.5zm-9.2 14.1c.7-4.4 4.3-6.8 9.7-6.8s9.6 2.5 9.7 6.8zm59.4-24.3v45h17v-45z" fill="#fff"/></g><defs><clipPath id="a"><path fill="#fff" d="M0 0h512v512H0z"/></clipPath></defs></svg>