<svg fill="none" xmlns="http://www.w3.org/2000/svg" viewBox="0 0 24 24"><g clip-path="url(#a)"><path d="M.5 11.998a11.5 11.5 0 0 0 3.3683 8.1317A11.5 11.5 0 0 0 12 23.498a11.5 11.5 0 0 0 8.1317-3.3683A11.5 11.5 0 0 0 23.5 11.998a11.501 11.501 0 0 0-7.0991-10.6246A11.5 11.5 0 0 0 3.8683 3.8663 11.5 11.5 0 0 0 .5 11.998" fill="#45AEFF"/><path d="M3.964 15A11.5 11.5 0 0 1 21.109 4.979a11.4997 11.4997 0 0 0-17.8014-.506A11.5 11.5 0 0 0 6.355 22.019 11.447 11.447 0 0 1 3.964 15" fill="#DFF9FF"/><path d="m1.898 17.498 7.603.001M2.512 5.498h18.984m-10.995 6H.511M9 23.1A11.5 11.5 0 1 1 23.338 10" stroke="#00303E" stroke-linecap="round" stroke-linejoin="round"/><path d="M11.269.524C5.888 6.355 5.42 13.76 9.711 21M12.73.524A16.02 16.02 0 0 1 17.066 9.5" stroke="#00303E" stroke-linecap="round" stroke-linejoin="round"/><path d="m11.1875 16.625 2.7631.9187h.0069a.6294.6294 0 0 1 .6675-.9187H16.5a4.12 4.12 0 0 1 2.8125-1.25h1.875l2.5 1.25v3.75l-2.5-1.5625c-6.705 2.2356-4.2319 2.2581-11.875-1.5625a1.726 1.726 0 0 1 .8391-.6077 1.726 1.726 0 0 1 1.0359-.0173" fill="#DFF9FF"/><path d="m13.9506 17.5438-2.7631-.9188a1.725 1.725 0 0 0-1.875.625c7.6431 3.8206 5.17 3.7981 11.875 1.5625l2.5 1.5625" stroke="#00303E" stroke-linecap="round" stroke-linejoin="round"/><path d="M18.0625 17.875H14.625a.636.636 0 0 1-.5196-.1379.63.63 0 0 1-.1679-.2183.634.634 0 0 1 0-.5376.634.634 0 0 1 .4124-.345.64.64 0 0 1 .2751-.0112H16.5a4.12 4.12 0 0 1 2.8125-1.25h1.875l2.5 1.25" stroke="#00303E" stroke-linecap="round" stroke-linejoin="round"/><g clip-path="url(#b)"><path d="M13.0625 12.0854c0 .739 1.1458 2.5794 1.4748 3.0938a.1044.1044 0 0 0 .1377.0352.104.104 0 0 0 .0377-.0352c.329-.5142 1.4748-2.3548 1.4748-3.0938a1.5624 1.5624 0 1 0-3.125 0" fill="#DFF9FF"/><path d="M14.625 11.4675a1.563 1.563 0 0 0-1.4775 1.0579 1.58 1.58 0 0 1-.085-.44 1.5624 1.5624 0 1 1 3.125 0 1.58 1.58 0 0 1-.085.44 1.562 1.562 0 0 0-1.4775-1.0579" fill="#DFF9FF"/><path d="M13.0625 12.0854c0 .739 1.1458 2.5794 1.4748 3.0938a.1044.1044 0 0 0 .1377.0352.104.104 0 0 0 .0377-.0352c.329-.5142 1.4748-2.3548 1.4748-3.0938a1.5624 1.5624 0 1 0-3.125 0" stroke="#00303E" stroke-linecap="round" stroke-linejoin="round"/></g></g><defs><clipPath id="a"><path fill="#fff" d="M0 0h24v24H0z"/></clipPath><clipPath id="b"><path fill="#fff" d="M17.125 10.375h-5v5h5z"/></clipPath></defs></svg>