<?xml version="1.0" encoding="UTF-8" standalone="no"?>
<!-- Created with Inkscape (http://www.inkscape.org/) -->

<svg
   xmlns:dc="http://purl.org/dc/elements/1.1/"
   xmlns:cc="http://creativecommons.org/ns#"
   xmlns:rdf="http://www.w3.org/1999/02/22-rdf-syntax-ns#"
   xmlns:svg="http://www.w3.org/2000/svg"
   xmlns="http://www.w3.org/2000/svg"
   xmlns:sodipodi="http://sodipodi.sourceforge.net/DTD/sodipodi-0.dtd"
   xmlns:inkscape="http://www.inkscape.org/namespaces/inkscape"
   version="1.1"
   id="svg901"
   width="300"
   height="224"
   viewBox="0 0 300 224"
   sodipodi:docname="Lakome logo.svg"
   inkscape:version="0.92.3 (2405546, 2018-03-11)">
  <metadata
     id="metadata907">
    <rdf:RDF>
      <cc:Work
         rdf:about="">
        <dc:format>image/svg+xml</dc:format>
        <dc:type
           rdf:resource="http://purl.org/dc/dcmitype/StillImage" />
        <dc:title />
      </cc:Work>
    </rdf:RDF>
  </metadata>
  <defs
     id="defs905" />
  <sodipodi:namedview
     pagecolor="#ffffff"
     bordercolor="#666666"
     borderopacity="1"
     objecttolerance="10"
     gridtolerance="10"
     guidetolerance="10"
     inkscape:pageopacity="0"
     inkscape:pageshadow="2"
     inkscape:window-width="1366"
     inkscape:window-height="711"
     id="namedview903"
     showgrid="false"
     inkscape:zoom="1"
     inkscape:cx="26.48311"
     inkscape:cy="134.81551"
     inkscape:window-x="0"
     inkscape:window-y="0"
     inkscape:window-maximized="1"
     inkscape:current-layer="layer2" />
  <text
     xml:space="preserve"
     style="font-style:normal;font-variant:normal;font-weight:normal;font-stretch:normal;font-size:16px;line-height:1.25;font-family:FreeFarsi;-inkscape-font-specification:FreeFarsi;letter-spacing:0px;word-spacing:0px;fill:#000000;fill-opacity:1;stroke:none"
     x="261.96609"
     y="117.69492"
     id="text1476"><tspan
       sodipodi:role="line"
       id="tspan1474"
       x="261.96609"
       y="132.49179"
       style="font-style:normal;font-variant:normal;font-weight:normal;font-stretch:normal;font-size:192px;font-family:KacstLetter;-inkscape-font-specification:KacstLetter" /></text>
  <g
     inkscape:groupmode="layer"
     id="layer2"
     inkscape:label="logo">
    <text
       xml:space="preserve"
       style="font-style:normal;font-variant:normal;font-weight:normal;font-stretch:normal;font-size:16px;line-height:1.25;font-family:FreeFarsi;-inkscape-font-specification:FreeFarsi;letter-spacing:0px;word-spacing:0px;fill:#cb0101;fill-opacity:1;stroke:none"
       x="26.576271"
       y="205.96609"
       id="text1456"><tspan
         sodipodi:role="line"
         id="tspan1454"
         x="26.576271"
         y="205.96609"
         style="-inkscape-font-specification:sans-serif;font-family:sans-serif;font-weight:normal;font-style:normal;font-stretch:normal;font-variant:normal;font-size:37.33333333px;fill:#cb0101;fill-opacity:1;"><tspan
   style="fill:#000000"
   id="tspan1464">la</tspan>k<tspan
   style="fill:#000000"
   id="tspan1466">ome</tspan><tspan
   style="fill:#999999"
   id="tspan1470">.</tspan><tspan
   style="fill:#000000"
   id="tspan1468">com</tspan></tspan></text>
    <path
       style="fill:#cb0101;stroke-width:1.03547096;fill-opacity:1"
       d="m 86.932627,106.32865 c -0.03994,-19.9324 0.0235,-20.582184 1.849452,-18.924913 1.685278,1.529613 5.912063,1.716192 38.878171,1.716192 h 36.98732 L 148.67183,72.336769 132.69609,55.5536 l 2.44648,-9.400635 c 1.34556,-5.170354 3.41577,-12.667129 4.60045,-16.659515 l 2.15397,-7.258874 27.03861,-8.463315 c 14.87123,-4.6548225 27.14653,-8.357496 27.27843,-8.2281648 0.27306,0.2677333 -5.69062,21.4668838 -6.17591,21.9535918 -0.17409,0.174594 -9.29282,3.56471 -20.26384,7.533585 -10.97103,3.968876 -20.21602,7.485622 -20.54443,7.814985 -0.61354,0.615339 2.98905,4.591921 28.06558,30.979182 l 14.53573,15.295489 h 4.91491 4.91493 v 16.073221 16.07323 h -7.02812 -7.02811 l -6.62183,-9.33119 c -3.64201,-5.13216 -6.95838,-8.98195 -7.36971,-8.5551 -0.41133,0.42684 -2.65604,4.62588 -4.98822,9.33118 l -4.24035,8.55511 H 127.22191 90.059165 l -1.542568,2.8517 c -1.412025,2.61036 -1.546073,1.10485 -1.58397,-17.78943 z"
       id="path1611"
       inkscape:connector-curvature="0" />
    <path
       style="fill:#000000;stroke-width:1.0059191"
       d="M 201.661,105.19316 V 89.119929 h 25.26605 c 22.2557,0 25.3374,-0.197592 25.8649,-1.65843 0.58049,-1.607589 -0.4206,-9.940106 -3.91209,-32.561981 -1.38146,-8.950699 -2.16701,-11.487648 -4.41438,-14.256239 l -2.73386,-3.367926 3.29916,-8.313202 c 1.81454,-4.572262 4.53371,-10.522968 6.0426,-13.223793 l 2.74343,-4.910589 0.57321,4.369861 c 0.31527,2.403423 1.424,5.390891 2.46385,6.638819 2.37954,2.855686 15.48571,14.028369 17.14596,14.61649 0.81626,0.289148 -0.99149,4.156583 -5.30068,11.340121 -7.42744,12.381732 -7.36528,12.007217 -5.45064,32.845269 0.99386,10.8166 0.89826,12.945358 -1.09684,24.424001 -1.20208,6.91603 -2.58567,13.39124 -3.07466,14.38934 -0.8156,1.66478 -3.22415,1.81471 -29.15253,1.81471 H 201.661 Z"
       id="path1609"
       inkscape:connector-curvature="0" />
    <path
       style="fill:#000000;stroke-width:1.00576317"
       d="m 35.379497,154.99161 c -0.28675,-2.9954 -2.15246,-15.81065 -4.14602,-28.47835 l -3.62467,-23.03217 2.11963,-9.212873 c 1.1658,-5.06708 4.24794,-13.86365 6.84921,-19.547935 5.48018,-11.975275 7.95258,-14.393899 19.43546,-19.012739 6.64881,-2.674396 22.33462,-6.907017 25.82922,-6.969693 0.87344,-0.01566 1.23523,2.092346 1.23523,7.19725 0,8.996839 2.41852,20.54924 5.53403,26.434135 2.2404,4.231882 2.37147,5.440562 2.37147,21.869145 0,15.98173 -0.17475,17.71178 -2.15834,21.36777 -1.18709,2.18793 -2.43475,3.97807 -2.77258,3.97807 -0.33783,0 -2.14585,-1.20546 -4.01783,-2.6788 -1.87197,-1.47334 -6.29404,-4.06012 -9.8268,-5.74839 -9.78476,-4.67604 -23.60673,-16.45377 -23.68526,-20.18225 -0.0172,-0.81546 1.10876,-5.354223 2.50207,-10.086133 1.39332,-4.73191 2.32077,-8.823628 2.06101,-9.092712 -0.78877,-0.817074 -4.64164,1.726957 -9.18373,6.063972 -5.23672,5.00028 -5.21563,4.63688 -1.76338,30.379783 1.48207,11.05158 2.26943,20.4556 1.88947,22.56724 -0.68997,3.83458 -5.96594,17.37192 -7.32354,18.79111 -0.44181,0.46186 -1.03791,-1.61104 -1.32465,-4.60643 z m 40.30069,-68.354993 c -0.33729,-1.10084 -0.96931,-4.334819 -1.40451,-7.18663 -0.43519,-2.851811 -1.10228,-5.507292 -1.48241,-5.901072 -0.74344,-0.770122 -9.47945,3.656585 -9.47945,4.803424 0,1.436669 10.38105,10.181458 12.17188,10.253358 0.44426,0.0178 0.53177,-0.86825 0.19449,-1.96908 z"
       id="path1607"
       inkscape:connector-curvature="0" />
    <text
       xml:space="preserve"
       style="font-style:normal;font-variant:normal;font-weight:normal;font-stretch:normal;font-size:15.50021172px;line-height:1.25;font-family:FreeFarsi;-inkscape-font-specification:FreeFarsi;letter-spacing:0px;word-spacing:0px;fill:#999999;fill-opacity:1;stroke:none;stroke-width:0.96876323"
       x="86.697044"
       y="150.75763"
       id="text1615"
       transform="scale(1.0044712,0.99554869)"><tspan
         sodipodi:role="line"
         id="tspan1613"
         x="86.697044"
         y="150.75763"
         style="font-style:normal;font-variant:normal;font-weight:normal;font-stretch:normal;font-size:25.25797653px;font-family:sans-serif;-inkscape-font-specification:sans-serif;fill:#999999;stroke-width:0.96876323">من هنا تبدأ الحرية</tspan></text>
  </g>
</svg>
