<svg xmlns="http://www.w3.org/2000/svg" viewBox="0 0 24 24"><path d="M.5 11.998a11.499 11.499 0 1 0 23 0A11.504 11.504 0 0 0 12 .498a11.5 11.5 0 0 0-11.5 11.5" fill="#45AEFF"/><path d="M3.964 15a11.5 11.5 0 0 1 5.697-9.93 11.5 11.5 0 0 1 11.448-.091 11.5 11.5 0 1 0-14.754 17.04A11.45 11.45 0 0 1 3.964 15" fill="#DFF9FF"/><path d="M23.5 12a11.5 11.5 0 0 1-2.877 7.604 11.5 11.5 0 0 1-15.091 1.889A11.496 11.496 0 0 1 1.78 6.754 11.493 11.493 0 0 1 23.5 12" fill="none" stroke="#00303E" stroke-linecap="round" stroke-linejoin="round"/><path d="M17.017 6.5A11.7 11.7 0 0 0 12 .5a11.7 11.7 0 0 0-5.017 6m-.001 11a11.7 11.7 0 0 0 5.018 6 10.4 10.4 0 0 0 5.1-6M3.282 4.5h17.436m-17.436 15h17.436M9.5 14.5v-5m0 0 2 5m0 0v-5m2 0h2m-2 2.5h2m-2 2.5h2m-2-5v5m4-5v5m0 0 1-2.5 1 2.5m0 0v-5" fill="none" stroke="#00303E" stroke-linecap="round" stroke-linejoin="round"/></svg>