<svg viewBox="0 0 24 24" xmlns="http://www.w3.org/2000/svg"><path d="M21.27 14.82h-.1a7.6 7.6 0 0 1-4.36 4.48v-4.5l2.45-2.18-2.45-2.18V7.4c2.14 0 3.89-1.7 3.93-3.84C20.74.93 18.23 0 16.8 0q-.55 0-1.09.12v.13h.56A1.47 1.47 0 0 1 18 1.58c-.03.8-.7 1.4-1.49 1.37h-.06C14.01 2.95 11.13.96 8 .96a4.5 4.5 0 0 0-4.72 4.18 3.1 3.1 0 0 0 2.48 3.2v-.11a1.5 1.5 0 0 1-.68-1.37 1.84 1.84 0 0 1 1.98-1.7h.03c2.63 0 6.87 2.18 9.5 2.18h.1v3.15l-2.44 2.18 2.44 2.18v4.55q-1.48.48-3.03.47a6.8 6.8 0 0 1-4.62-1.52l4.43-1.98V7.45l-6.2 2.73a6.5 6.5 0 0 1 3.6-3.9v-.1c-4.52 1-8.14 4.24-8.14 8.7 0 5.2 4.02 9.12 9.82 9.12 6 0 8.72-4.36 8.72-8.81zM8.86 18.18a7 7 0 0 1-2-5.16q-.03-1.33.36-2.6l2.05-.94v8.48z"/></svg>