<svg fill="none" xmlns="http://www.w3.org/2000/svg" viewBox="0 0 24 24"><g clip-path="url(#a)"><path d="M.5 11.998a11.5 11.5 0 1 0 23 0 11.5 11.5 0 0 0-23 0" fill="#45AEFF"/><path d="M3.964 15A11.5 11.5 0 0 1 21.109 4.979a11.5 11.5 0 1 0-14.754 17.04A11.45 11.45 0 0 1 3.964 15" fill="#DFF9FF"/><path d="m1.898 17.5 7.602.001M2.512 5.5h18.984M12 11.501.511 11.5m10.867 11.984A11.5 11.5 0 1 1 23.114 9" stroke="#00303E" stroke-linecap="round" stroke-linejoin="round"/><path d="M11.269.526c-6 6.5-5.891 14.958.109 22.958M12.73.526A16.13 16.13 0 0 1 17 9" stroke="#00303E" stroke-linecap="round" stroke-linejoin="round"/><path d="M19.733 10a3.7 3.7 0 0 0-1.238.217c-.391.142-.746.35-1.043.61-.298.26-.531.569-.688.908s-.234.7-.226 1.065a2.44 2.44 0 0 0 .421 1.474L16 16l2.014-.822c.43.228.915.367 1.418.407s1.01-.02 1.482-.176a3.3 3.3 0 0 0 1.233-.724c.34-.32.59-.704.728-1.12.139-.417.162-.855.07-1.28a2.6 2.6 0 0 0-.605-1.173 3.2 3.2 0 0 0-1.15-.82A3.7 3.7 0 0 0 19.732 10" fill="#DFF9FF" stroke="#00303E" stroke-width=".5" stroke-linecap="round" stroke-linejoin="round"/><path d="M20 14a.25.25 0 0 1 .049.495.25.25 0 0 1-.299-.245A.25.25 0 0 1 20 14m0-1v-2" stroke="#00303E" stroke-width=".3" stroke-linecap="round" stroke-linejoin="round"/><path d="M16.5 20a1.5 1.5 0 1 0 0-3 1.5 1.5 0 0 0 0 3" fill="#DFF9FF" stroke="#00303E" stroke-width=".5" stroke-linecap="round" stroke-linejoin="round"/><path d="M20 23a4.04 4.04 0 0 0-1.284-2.162A3.4 3.4 0 0 0 16.5 20c-.803 0-1.582.295-2.216.838A4.04 4.04 0 0 0 13 23" fill="#DFF9FF"/><path d="M20 23a4.04 4.04 0 0 0-1.284-2.162A3.4 3.4 0 0 0 16.5 20c-.803 0-1.582.295-2.216.838A4.04 4.04 0 0 0 13 23" stroke="#00303E" stroke-width=".5" stroke-linecap="round" stroke-linejoin="round"/></g><defs><clipPath id="a"><path fill="#fff" d="M0 0h24v24H0z"/></clipPath></defs></svg>