<svg fill="none" xmlns="http://www.w3.org/2000/svg" viewBox="0 0 24 24"><g clip-path="url(#a)"><path d="M1 10.5a10 10 0 1 0 20 0 10 10 0 0 0-20 0" fill="#45AEFF"/><path d="M4 14a10 10 0 0 1 15.891-8.08A9.999 9.999 0 0 0 1.01 10.89a10 10 0 0 0 4.099 7.69A9.95 9.95 0 0 1 4 14" fill="#DFF9FF"/><path d="M11 20.5A10 10 0 1 1 20.372 7" stroke="#00303E" stroke-linecap="round" stroke-linejoin="round"/><path d="M11 .5S6 3 6 10.5s5 10 5 10m0-20A10.03 10.03 0 0 1 15.591 7M2.338 5.5h17.324m-17.324 10H11" stroke="#00303E" stroke-linecap="round" stroke-linejoin="round"/><g clip-path="url(#b)"><path d="M23.833 22.708a3.53 3.53 0 0 1-.291-2.916H12.458a3.53 3.53 0 0 1-.291 2.916h4.958v-.875a.875.875 0 0 1 1.75 0v.875z" fill="#DFF9FF" stroke="#00303E" stroke-width=".5" stroke-linecap="round" stroke-linejoin="round"/><path d="M15.958 14.542h4.084v2.916h-4.084z" fill="#45AEFF"/><path d="M15.958 14.542H18v2.916h-2.042z" fill="#DFF9FF"/><path d="M12.458 15.708h2.334v2.917h-2.334z" fill="#45AEFF"/><path d="M12.458 15.708h1.167v2.917h-1.167z" fill="#DFF9FF"/><path d="M21.208 15.708h2.334v2.917h-2.334z" fill="#45AEFF"/><path d="M21.208 15.708h1.167v2.917h-1.167z" fill="#DFF9FF"/><path d="M13.625 17.313a.146.146 0 0 1 .146.145m-.291 0a.146.146 0 0 1 .145-.145m0 .291a.146.146 0 0 1-.146-.146m.291 0a.145.145 0 0 1-.145.146M18 15.854a.145.145 0 0 1 .146.146m-.292 0a.146.146 0 0 1 .146-.146m0 .292a.145.145 0 0 1-.146-.146m.292 0a.145.145 0 0 1-.146.146m-5.415 5.396h2.498m8.332 0h-2.498" stroke="#00303E" stroke-width=".5" stroke-linecap="round" stroke-linejoin="round"/><path d="m12.458 15.708 1.167-2.625 1.167 2.625z" fill="#45AEFF"/><path d="m12.458 15.708 1.167-2.625v2.625z" fill="#DFF9FF"/><path d="M15.958 14.542 18 11.917l2.042 2.625z" fill="#45AEFF"/><path d="M15.958 14.542 18 11.917v2.625z" fill="#DFF9FF"/><path d="M22.375 17.313a.146.146 0 0 1 .146.145m-.291 0a.146.146 0 0 1 .145-.145m0 .291a.146.146 0 0 1-.146-.146m.291 0a.145.145 0 0 1-.145.146" stroke="#00303E" stroke-width=".5" stroke-linecap="round" stroke-linejoin="round"/><path d="m21.208 15.708 1.167-2.625 1.167 2.625z" fill="#45AEFF"/><path d="m21.208 15.708 1.167-2.625v2.625z" fill="#DFF9FF"/><path d="M18 11.917V10.75" stroke="#00303E" stroke-width=".5" stroke-linecap="round" stroke-linejoin="round"/><path d="m18 9.292 1.185.474a.146.146 0 0 1 .021.26L18 10.75z" fill="#45AEFF" stroke="#00303E" stroke-width=".5" stroke-linecap="round" stroke-linejoin="round"/><path d="M13.625 13.083V12.5" stroke="#00303E" stroke-width=".5" stroke-linecap="round" stroke-linejoin="round"/><path d="m13.625 11.042 1.185.474a.145.145 0 0 1 .021.26l-1.206.724z" fill="#45AEFF" stroke="#00303E" stroke-width=".5" stroke-linecap="round" stroke-linejoin="round"/><path d="M22.375 13.083V12.5" stroke="#00303E" stroke-width=".5" stroke-linecap="round" stroke-linejoin="round"/><path d="m22.375 11.042 1.185.474a.145.145 0 0 1 .021.26l-1.206.724z" fill="#45AEFF" stroke="#00303E" stroke-width=".5" stroke-linecap="round" stroke-linejoin="round"/><path d="M14.792 18.625h6.416Z" fill="#DFF9FF"/><path d="M14.792 18.625h6.416m-9.916 4.083h.875m11.666 0h.875" stroke="#00303E" stroke-width=".5" stroke-linecap="round" stroke-linejoin="round"/><path d="M12.458 18.625h11.084v1.167H12.458z" fill="#45AEFF" stroke="#00303E" stroke-width=".5" stroke-linecap="round" stroke-linejoin="round"/><path d="M14.792 17.458h6.416v1.167h-6.416z" fill="#DFF9FF" stroke="#00303E" stroke-width=".5" stroke-linecap="round" stroke-linejoin="round"/><path d="M15.958 14.542h4.084v2.916h-4.084zm-3.5 1.166h2.334v2.917h-2.334zm8.75 0h2.334v2.917h-2.334zm-8.75 0 1.167-2.625 1.167 2.625zm3.5-1.166L18 11.917l2.042 2.625zm5.25 1.166 1.167-2.625 1.167 2.625z" stroke="#00303E" stroke-width=".5" stroke-linecap="round" stroke-linejoin="round"/></g></g><defs><clipPath id="a"><path fill="#fff" d="M0 0h24v24H0z"/></clipPath><clipPath id="b"><path fill="#fff" d="M11 9h14v14H11z"/></clipPath></defs></svg>