<svg fill="none" xmlns="http://www.w3.org/2000/svg" viewBox="0 0 24 24"><g clip-path="url(#a)"><path d="M.5 12a11.5 11.5 0 1 0 23 0 11.5 11.5 0 0 0-23 0" fill="#45AEFF"/><path d="M4 15A11.5 11.5 0 0 1 21 5 11.5 11.5 0 1 0 6.4 22Q4 19 4 15" fill="#DFF9FF"/><path d="M1.9 17.5h7.6m-7-12h19m-9.5 6H.5m10.9 12a11.5 11.5 0 1 1 12.1-12" stroke="#00303E" stroke-linecap="round" stroke-linejoin="round"/><path d="M11.3.5c-6 6.5-6 15 0 23m1.4-23Q16.2 4.2 17 9" stroke="#00303E" stroke-linecap="round" stroke-linejoin="round"/><g clip-path="url(#b)"><path d="M15.4 15.8a1.8 1.8 0 1 0 3.6 0 1.8 1.8 0 0 0-3.6 0" fill="#DFF9FF"/><path d="M19 15.8q0-.5-.2-.9a1.8 1.8 0 0 0-2.5 2.5 1.8 1.8 0 0 0 2.7-1.6" fill="#9FEAFF"/><path d="M11.2 13.5a.7.7 0 1 0 1.4 0 .7.7 0 0 0-1.4 0m9.2-1.5a.7.7 0 1 0 1.4 0 .7.7 0 0 0-1.4 0m-9.2 9a.7.7 0 1 0 1.4 0 .7.7 0 0 0-1.4 0m5.3 0a.7.7 0 1 0 1.4 0 .7.7 0 0 0-1.4 0" fill="#9FEAFF" stroke="#00303E" stroke-width=".5" stroke-linecap="round" stroke-linejoin="round"/><path d="m12.4 20.6 3.5-3.5m2.6-2.6 2.1-2.1m-8.1 1.4 3 1.3m4.9 2.3-1.6-.7m-1.6 3.7v-2.8" stroke="#00303E" stroke-width=".5" stroke-linecap="round" stroke-linejoin="round"/><path d="M20.4 17.6a.7.7 0 1 0 1.4 0 .7.7 0 0 0-1.4 0" fill="#9FEAFF" stroke="#00303E" stroke-width=".5" stroke-linecap="round" stroke-linejoin="round"/><path d="M15.4 15.8a1.8 1.8 0 1 0 3.6 0 1.8 1.8 0 0 0-3.6 0" stroke="#00303E" stroke-linecap="round" stroke-linejoin="round"/></g></g><defs><clipPath id="a"><path fill="#fff" d="M0 0h24v24H0z"/></clipPath><clipPath id="b"><path fill="#fff" d="M11 11h11v11H11z"/></clipPath></defs></svg>