<svg width="24" height="24" viewBox="0 0 24 24" fill="none" xmlns="http://www.w3.org/2000/svg">
<path d="M0.5 11.998C0.5 13.5082 0.797456 15.0036 1.37539 16.3989C1.95331 17.7941 2.8004 19.0619 3.86827 20.1297C4.93615 21.1976 6.2039 22.0447 7.59914 22.6226C8.99438 23.2005 10.4898 23.498 12 23.498C13.5102 23.498 15.0056 23.2005 16.4009 22.6226C17.7961 22.0447 19.0639 21.1976 20.1317 20.1297C21.1996 19.0619 22.0467 17.7941 22.6246 16.3989C23.2025 15.0036 23.5 13.5082 23.5 11.998C23.5 10.4878 23.2025 8.99239 22.6246 7.59714C22.0467 6.2019 21.1996 4.93415 20.1317 3.86627C19.0639 2.7984 17.7961 1.95132 16.4009 1.37339C15.0056 0.795457 13.5102 0.498001 12 0.498001C10.4898 0.498001 8.99438 0.795457 7.59914 1.37339C6.2039 1.95132 4.93615 2.7984 3.86827 3.86627C2.8004 4.93415 1.95331 6.2019 1.37539 7.59714C0.797456 8.99239 0.5 10.4878 0.5 11.998Z" fill="#45AEFF"/>
<path d="M3.96399 15C3.96368 12.9914 4.48944 11.0178 5.48895 9.27556C6.48846 7.53333 7.92685 6.08326 9.66095 5.06971C11.395 4.05615 13.3644 3.51446 15.3729 3.49854C17.3814 3.48263 19.3591 3.99305 21.109 4.979C20.0684 3.62924 18.7407 2.52766 17.2221 1.75395C15.7035 0.98024 14.0319 0.553749 12.3282 0.505329C10.6246 0.456909 8.93146 0.787771 7.37136 1.47398C5.81126 2.16019 4.42319 3.18459 3.30757 4.47307C2.19194 5.76154 1.37666 7.28189 0.920702 8.92411C0.464741 10.5663 0.379502 12.2894 0.671151 13.9686C0.9628 15.6478 1.62405 17.2412 2.60705 18.6335C3.59005 20.0258 4.87024 21.1822 6.35499 22.019C4.80129 20.0094 3.96014 17.5402 3.96399 15Z" fill="#DFF9FF"/>
<path d="M1.89801 17.5H9.50101" stroke="#00303E" stroke-linecap="round" stroke-linejoin="round"/>
<path d="M2.51196 5.5H21.496" stroke="#00303E" stroke-linecap="round" stroke-linejoin="round"/>
<path d="M10.5 11.5H0.510986" stroke="#00303E" stroke-linecap="round" stroke-linejoin="round"/>
<path d="M11.378 23.484C9.21942 23.3645 7.13825 22.639 5.3732 21.3907C3.60816 20.1425 2.23071 18.4219 1.39888 16.4265C0.56705 14.4311 0.314519 12.2416 0.670257 10.1092C1.02599 7.97684 1.97559 5.98791 3.41012 4.37058C4.84466 2.75325 6.70602 1.57304 8.7807 0.965312C10.8554 0.357587 13.0593 0.346967 15.1398 0.93467C17.2202 1.52237 19.0929 2.6846 20.5429 4.28802C21.993 5.89145 22.9617 7.87114 23.338 10" stroke="#00303E" stroke-linecap="round" stroke-linejoin="round"/>
<path d="M11.269 0.526001C5.26899 7.026 5.37799 15.484 11.378 23.484" stroke="#00303E" stroke-linecap="round" stroke-linejoin="round"/>
<path d="M12.73 0.526001C14.9709 2.85853 16.4587 5.81104 17 9" stroke="#00303E" stroke-linecap="round" stroke-linejoin="round"/>
<path d="M18 12C18 12.5304 18.2107 13.0391 18.5858 13.4142C18.9609 13.7893 19.4696 14 20 14C20.5304 14 21.0391 13.7893 21.4142 13.4142C21.7893 13.0391 22 12.5304 22 12C22 11.4696 21.7893 10.9609 21.4142 10.5858C21.0391 10.2107 20.5304 10 20 10C19.4696 10 18.9609 10.2107 18.5858 10.5858C18.2107 10.9609 18 11.4696 18 12Z" fill="#DFF9FF" stroke="#00303E" stroke-linecap="round" stroke-linejoin="round"/>
<path d="M10 18C10 18.2652 10.1054 18.5196 10.2929 18.7071C10.4804 18.8946 10.7348 19 11 19C11.2652 19 11.5196 18.8946 11.7071 18.7071C11.8946 18.5196 12 18.2652 12 18C12 17.7348 11.8946 17.4804 11.7071 17.2929C11.5196 17.1054 11.2652 17 11 17C10.7348 17 10.4804 17.1054 10.2929 17.2929C10.1054 17.4804 10 17.7348 10 18Z" fill="#DFF9FF" stroke="#00303E" stroke-linecap="round" stroke-linejoin="round"/>
<path d="M15 14L15.3348 15.088C15.4164 15.3534 15.5729 15.5843 15.7823 15.7479C15.9917 15.9116 16.2433 15.9998 16.5015 16H20.6431C20.8049 15.9999 20.9652 16.0343 21.1147 16.1013C21.2642 16.1684 21.4001 16.2667 21.5145 16.3907L23 18" stroke="#00303E" stroke-linecap="round" stroke-linejoin="round"/>
<path d="M18 19H15.1581C14.9106 19.0001 14.668 19.0778 14.4576 19.2243C14.2471 19.3708 14.077 19.5804 13.9664 19.8295L13 22" stroke="#00303E" stroke-linecap="round" stroke-linejoin="round"/>
<path d="M19 16L17.1187 20.88C17.0133 21.1531 16.9768 21.4624 17.0144 21.7639C17.052 22.0655 17.1619 22.344 17.3284 22.56L18.4383 24" stroke="#00303E" stroke-linecap="round" stroke-linejoin="round"/>
</svg>
