<svg fill="none" xmlns="http://www.w3.org/2000/svg" viewBox="0 0 24 24"><g clip-path="url(#a)"><path d="M.5 12a11.5 11.5 0 1 0 23 0 11.5 11.5 0 0 0-23 0" fill="#45AEFF"/><path d="M3.96 15A11.5 11.5 0 0 1 21.11 4.98 11.5 11.5 0 1 0 6.35 22.02 11.5 11.5 0 0 1 3.96 15" fill="#DFF9FF"/><path d="M1.9 17.5H11m-8.49-12H21.5m-9 6H.51M8.5 22.96a11.5 11.5 0 1 1 15-11.46" stroke="#00303E" stroke-linecap="round" stroke-linejoin="round"/><path d="M11.27.52C5.89 6.36 5.42 13.76 9.7 21M12.73.52a16 16 0 0 1 4.34 8.98" stroke="#00303E" stroke-linecap="round" stroke-linejoin="round"/><path d="M10.7 21c-1.71 0-4.65-1.1-4.7-2.25-.04-.86 2.44-3.07 5.09-3.07h7.82l2.35-2.22q.23-.26.54-.38.3-.12.63-.06H24l-3.52 7.1q-.2.36-.5.59t-.68.29z" fill="#fff"/><path d="M6 19c.1 1.03 2.97 2 4.65 2h8.53a1.6 1.6 0 0 0 1.17-.8L21 19z" fill="#DFF9FF"/><path d="M10.7 21c-1.71 0-4.65-1.1-4.7-2.25-.04-.86 2.44-3.07 5.09-3.07h7.82l2.35-2.22q.23-.26.54-.38.3-.12.63-.06H24l-3.52 7.1q-.2.36-.5.59t-.68.29z" stroke="#00303E" stroke-width=".5" stroke-linecap="round" stroke-linejoin="round"/><path d="M15 22h-3.6q-.15 0-.28-.1a.3.3 0 0 1-.12-.23v-1.34a.3.3 0 0 1 .12-.23q.11-.1.28-.1H15c.92 0 1.17.31 2 1-1.17 1-1.44 1-2 1" fill="#fff" stroke="#00303E" stroke-width=".5" stroke-linecap="round" stroke-linejoin="round"/><path d="M12 22v-2Z" fill="#fff"/><path d="M12 22v-2m8-1h3m-10-1h1m2 0h2" stroke="#00303E" stroke-width=".5" stroke-linecap="round" stroke-linejoin="round"/><path d="M6 18.96a8 8 0 0 0 4.24-.72A8 8 0 0 0 13 16h-1.6c-2.8 0-5.42 2.12-5.4 2.96" fill="#45AEFF" stroke="#00303E" stroke-width=".5" stroke-linecap="round" stroke-linejoin="round"/></g><defs><clipPath id="a"><path fill="#fff" d="M0 0h24v24H0z"/></clipPath></defs></svg>