<svg width="24" height="24" viewBox="0 0 24 24" fill="none" xmlns="http://www.w3.org/2000/svg">
<g clip-path="url(#clip0_3303_7456)">
<path d="M1 10.5C1 13.1522 2.05357 15.6957 3.92893 17.5711C5.8043 19.4464 8.34784 20.5 11 20.5C13.6522 20.5 16.1957 19.4464 18.0711 17.5711C19.9464 15.6957 21 13.1522 21 10.5C21 7.84784 19.9464 5.3043 18.0711 3.42893C16.1957 1.55357 13.6522 0.5 11 0.5C8.34784 0.5 5.8043 1.55357 3.92893 3.42893C2.05357 5.3043 1 7.84784 1 10.5Z" fill="#45AEFF"/>
<path d="M4.00002 14C4.00013 12.1544 4.51097 10.3449 5.47598 8.77177C6.44099 7.19861 7.82252 5.92319 9.46763 5.08671C11.1127 4.25023 12.9572 3.88533 14.7969 4.0324C16.6366 4.17948 18.3997 4.83278 19.891 5.92C19.1998 4.57858 18.2139 3.41101 17.0072 2.50477C15.8006 1.59853 14.4045 0.977134 12.9236 0.687142C11.4426 0.397151 9.91529 0.446086 8.45596 0.830281C6.99663 1.21448 5.64318 1.92397 4.49703 2.90559C3.35087 3.88721 2.44174 5.1155 1.83777 6.49841C1.23379 7.88133 0.950631 9.383 1.00951 10.8909C1.06838 12.3988 1.46776 13.8738 2.17773 15.2055C2.88769 16.5371 3.88982 17.6907 5.10902 18.58C4.37781 17.1642 3.99747 15.5935 4.00002 14Z" fill="#DFF9FF"/>
<path d="M15 8.5H22C22 8.5 23 8.5 23 9.5V22.5C23 22.5 23 23.5 22 23.5H15C15 23.5 14 23.5 14 22.5V9.5C14 9.5 14 8.5 15 8.5Z" fill="white"/>
<path d="M14 10.5H23V20.5H14V10.5Z" fill="#45AEFF"/>
<path d="M23 11V10.5H14V20L23 11Z" fill="#DFF9FF"/>
<path d="M11 20.5C9.17441 20.4992 7.38387 19.9986 5.82251 19.0526C4.26115 18.1066 2.98855 16.7512 2.14268 15.1333C1.29682 13.5155 0.909969 11.697 1.02407 9.87499C1.13817 8.05296 1.74887 6.29693 2.78996 4.79728C3.83106 3.29763 5.26281 2.11159 6.93 1.36774C8.59718 0.623895 10.4362 0.350629 12.2476 0.577571C14.0591 0.804513 15.7738 1.523 17.206 2.65514C18.6381 3.78728 19.7331 5.28987 20.372 7" stroke="#00303E" stroke-linecap="round" stroke-linejoin="round"/>
<path d="M15 8.5H22C22 8.5 23 8.5 23 9.5V22.5C23 22.5 23 23.5 22 23.5H15C15 23.5 14 23.5 14 22.5V9.5C14 9.5 14 8.5 15 8.5Z" stroke="#00303E" stroke-linecap="round" stroke-linejoin="round"/>
<path d="M14 20.5H23" stroke="#00303E" stroke-linecap="round" stroke-linejoin="round"/>
<path d="M14 10.5H23" stroke="#00303E" stroke-linecap="round" stroke-linejoin="round"/>
<path d="M18 22H19" stroke="#00303E" stroke-linecap="round" stroke-linejoin="round"/>
<path d="M11 0.5C11 0.5 6 3 6 10.5C6 18 11 20.5 11 20.5" stroke="#00303E" stroke-linecap="round" stroke-linejoin="round"/>
<path d="M11 0.5C12.1684 1.21264 13.1786 2.157 13.9682 3.2749C14.7577 4.39279 15.31 5.66053 15.591 7" stroke="#00303E" stroke-linecap="round" stroke-linejoin="round"/>
<path d="M2.33801 5.5H19.662" stroke="#00303E" stroke-linecap="round" stroke-linejoin="round"/>
<path d="M2.33801 15.5H11" stroke="#00303E" stroke-linecap="round" stroke-linejoin="round"/>
</g>
<defs>
<clipPath id="clip0_3303_7456">
<rect width="24" height="24" fill="white"/>
</clipPath>
</defs>
</svg>
