<svg width="24" height="24" viewBox="0 0 24 24" fill="none" xmlns="http://www.w3.org/2000/svg">
<g clip-path="url(#clip0_3303_7424)">
<path d="M0.5 11.998C0.5 13.5082 0.797456 15.0036 1.37539 16.3989C1.95331 17.7941 2.8004 19.0619 3.86827 20.1297C4.93615 21.1976 6.2039 22.0447 7.59914 22.6226C8.99438 23.2005 10.4898 23.498 12 23.498C13.5102 23.498 15.0056 23.2005 16.4009 22.6226C17.7961 22.0447 19.0639 21.1976 20.1317 20.1297C21.1996 19.0619 22.0467 17.7941 22.6246 16.3989C23.2025 15.0036 23.5 13.5082 23.5 11.998C23.5 10.4878 23.2025 8.99239 22.6246 7.59714C22.0467 6.2019 21.1996 4.93415 20.1317 3.86627C19.0639 2.7984 17.7961 1.95132 16.4009 1.37339C15.0056 0.795457 13.5102 0.498001 12 0.498001C10.4898 0.498001 8.99438 0.795457 7.59914 1.37339C6.2039 1.95132 4.93615 2.7984 3.86827 3.86627C2.8004 4.93415 1.95331 6.2019 1.37539 7.59714C0.797456 8.99239 0.5 10.4878 0.5 11.998Z" fill="#45AEFF"/>
<path d="M3.96399 15C3.96368 12.9914 4.48944 11.0178 5.48895 9.27556C6.48846 7.53333 7.92685 6.08326 9.66095 5.06971C11.395 4.05615 13.3644 3.51446 15.3729 3.49854C17.3814 3.48263 19.3591 3.99305 21.109 4.979C20.0684 3.62924 18.7407 2.52766 17.2221 1.75395C15.7035 0.98024 14.0319 0.553749 12.3282 0.505329C10.6246 0.456909 8.93146 0.787771 7.37136 1.47398C5.81126 2.16019 4.42319 3.18459 3.30757 4.47307C2.19194 5.76155 1.37666 7.28189 0.920702 8.92411C0.464741 10.5663 0.379502 12.2894 0.671151 13.9686C0.9628 15.6478 1.62405 17.2412 2.60705 18.6335C3.59005 20.0258 4.87024 21.1822 6.35499 22.019C4.80129 20.0094 3.96014 17.5402 3.96399 15Z" fill="#DFF9FF"/>
<path d="M0.5 11.998C0.5 13.5082 0.797456 15.0036 1.37539 16.3989C1.95331 17.7941 2.8004 19.0619 3.86827 20.1297C4.93615 21.1976 6.2039 22.0447 7.59914 22.6226C8.99438 23.2005 10.4898 23.498 12 23.498C13.5102 23.498 15.0056 23.2005 16.4009 22.6226C17.7961 22.0447 19.0639 21.1976 20.1317 20.1297C21.1996 19.0619 22.0467 17.7941 22.6246 16.3989C23.2025 15.0036 23.5 13.5082 23.5 11.998C23.5 10.4878 23.2025 8.99239 22.6246 7.59714C22.0467 6.2019 21.1996 4.93415 20.1317 3.86627C19.0639 2.7984 17.7961 1.95132 16.4009 1.37339C15.0056 0.795457 13.5102 0.498001 12 0.498001C10.4898 0.498001 8.99438 0.795457 7.59914 1.37339C6.2039 1.95132 4.93615 2.7984 3.86827 3.86627C2.8004 4.93415 1.95331 6.2019 1.37539 7.59714C0.797456 8.99239 0.5 10.4878 0.5 11.998Z" stroke="#00303E" stroke-linecap="round" stroke-linejoin="round"/>
<path d="M6.5 7.748C6.5 8.04348 6.5582 8.33606 6.67127 8.60904C6.78434 8.88202 6.95008 9.13006 7.15901 9.33899C7.36794 9.54792 7.61598 9.71366 7.88896 9.82673C8.16194 9.9398 8.45453 9.998 8.75 9.998C9.04547 9.998 9.33806 9.9398 9.61104 9.82673C9.88402 9.71366 10.1321 9.54792 10.341 9.33899C10.5499 9.13006 10.7157 8.88202 10.8287 8.60904C10.9418 8.33606 11 8.04348 11 7.748C11 7.45253 10.9418 7.15995 10.8287 6.88696C10.7157 6.61398 10.5499 6.36594 10.341 6.15701C10.1321 5.94808 9.88402 5.78235 9.61104 5.66927C9.33806 5.5562 9.04547 5.498 8.75 5.498C8.45453 5.498 8.16194 5.5562 7.88896 5.66927C7.61598 5.78235 7.36794 5.94808 7.15901 6.15701C6.95008 6.36594 6.78434 6.61398 6.67127 6.88696C6.5582 7.15995 6.5 7.45253 6.5 7.748Z" fill="#45AEFF" stroke="#00303E" stroke-linecap="round" stroke-linejoin="round"/>
<path d="M13 17.748C13 18.0795 13.1317 18.3975 13.3661 18.6319C13.6005 18.8663 13.9185 18.998 14.25 18.998C14.5815 18.998 14.8995 18.8663 15.1339 18.6319C15.3683 18.3975 15.5 18.0795 15.5 17.748C15.5 17.4165 15.3683 17.0985 15.1339 16.8641C14.8995 16.6297 14.5815 16.498 14.25 16.498C13.9185 16.498 13.6005 16.6297 13.3661 16.8641C13.1317 17.0985 13 17.4165 13 17.748Z" fill="#45AEFF" stroke="#00303E" stroke-linecap="round" stroke-linejoin="round"/>
<path d="M17 10.248C17 10.7121 17.1844 11.1572 17.5126 11.4854C17.8408 11.8136 18.2859 11.998 18.75 11.998C19.2141 11.998 19.6592 11.8136 19.9874 11.4854C20.3156 11.1572 20.5 10.7121 20.5 10.248C20.5 9.78387 20.3156 9.33875 19.9874 9.01056C19.6592 8.68238 19.2141 8.498 18.75 8.498C18.2859 8.498 17.8408 8.68238 17.5126 9.01056C17.1844 9.33875 17 9.78387 17 10.248Z" fill="#45AEFF" stroke="#00303E" stroke-linecap="round" stroke-linejoin="round"/>
<path d="M11 7.5C13.2355 7.58515 15.3655 8.47265 17 10" stroke="#00303E" stroke-linecap="round" stroke-linejoin="round"/>
<path d="M19.1 11.964L19.5 12.498C19.5 12.498 21 14.5 21 19" stroke="#00303E" stroke-linecap="round" stroke-linejoin="round"/>
<path d="M16.823 1.55501L17 2.00001C17.7236 4.14363 18.0622 6.3984 18 8.66001" stroke="#00303E" stroke-linecap="round" stroke-linejoin="round"/>
<path d="M17.5 11.5C17.3752 13.5659 16.6308 15.5463 15.364 17.183" stroke="#00303E" stroke-linecap="round" stroke-linejoin="round"/>
<path d="M13.652 18.846L13.5 19C13.5 19 11 21.5 5.5 21.5" stroke="#00303E" stroke-linecap="round" stroke-linejoin="round"/>
<path d="M12 0.5C10.6319 1.96325 9.53184 3.65569 8.75 5.5" stroke="#00303E" stroke-linecap="round" stroke-linejoin="round"/>
<path d="M7.58197 9.672L7.49997 10C6.95512 12.7045 7.30617 15.5128 8.49997 18C10.2 21.406 14.5 23 14.5 23L14.873 23.139" stroke="#00303E" stroke-linecap="round" stroke-linejoin="round"/>
<path d="M6.49998 7.748C6.49998 7.748 2.65898 8.023 0.724976 9.721" stroke="#00303E" stroke-linecap="round" stroke-linejoin="round"/>
<path d="M0.780029 14.532L1.00003 14.5C1.00003 14.5 7.88103 13.442 13.474 16.77" stroke="#00303E" stroke-linecap="round" stroke-linejoin="round"/>
</g>
<defs>
<clipPath id="clip0_3303_7424">
<rect width="24" height="24" fill="white"/>
</clipPath>
</defs>
</svg>
