<svg version="1.0" xmlns="http://www.w3.org/2000/svg" viewBox="0 0 400 400"><g transform="matrix(.1 0 0 -.1 0 400)"><path d="M0 2000V0h4000v4000H0zm1994 683c-3-16-10-44-15-63-15-60-16-60 71-60 44 0 80-1 80-2 0-2-7-28-15-58-22-83-19-88 28-43 55 53 118 88 192 107 224 59 421-53 471-269 3-16 8-25 9-20 2 6 18 72 35 148l32 137h212c259 0 298-8 366-79 55-56 80-125 80-220 0-162-95-336-221-406-51-28-63-30-189-35l-135-5-24-102-25-103h-144c-132 0-143 1-138 18 3 9 24 96 46 192s43 184 46 195c4 16 1 16-13-5-65-91-151-156-254-190-84-29-209-25-283 8-123 56-198 164-204 298-4 71 17 173 40 201 15 18-9 25-73 21l-54-3-32-140c-39-171-42-229-10-276 12-18 33-36 46-39 29-7 46-31 38-54-6-14-26-16-152-16-158 0-192 8-235 54-40 44-39 121 4 299 20 82 36 153 36 158s-21 9-47 9h-48l-133-260-133-260H961l-3 158-3 157-81-155-81-155-141-3c-140-3-142-2-146 20-3 13-12 145-21 293-8 149-18 305-22 348l-6 77h293l1-137c0-76 4-157 7-181l7-43 90 180 90 181h205l1-67c1-38 4-120 8-183l6-115 92 182 93 182 157 3 157 3 8 35c5 19 14 52 19 73l10 37h299zm-868-989c44-29 46-70 14-238-17-83-30-152-30-153 0-6-100-3-100 3 0 4 12 69 26 145 29 155 27 169-30 169-41 0-88-30-114-71-15-25-62-211-62-245 0-2-22-4-50-4-34 0-50 4-49 13 0 6 17 98 37 202l37 190 49 3 49 3-6-37-6-37 28 27c57 55 149 68 207 30m395 1c42-22 69-71 69-125 0-94 6-90-151-90-134 0-139-1-139-21 0-11 13-34 29-50 36-35 85-38 150-9 24 11 45 19 46 18 9-12 24-72 20-79-3-4-31-17-63-29-100-38-210-12-259 61-52 79-20 232 62 295 70 53 166 65 236 29m968 9c28-8 54-21 57-29s-4-28-15-44c-20-28-23-29-49-15-55 28-144 9-129-29 3-8 33-30 66-47 76-41 92-59 98-113 5-38 1-48-26-79-36-41-101-63-161-55-41 5-130 43-130 55 0 4 11 20 24 36l23 30 36-17c41-20 108-22 125-5 25 25 12 45-55 80-107 55-130 129-62 197 47 48 116 60 198 35m-754-71c3-43 9-109 13-148l7-69 69 147 69 147h43c50 0 50 1 60-160 3-58 9-110 13-116 3-7 35 53 71 132l65 144h53c28 0 52-2 52-5s-45-95-100-205l-100-200h-108l-6 38c-3 20-8 69-11 107-11 121-12 121-81-18l-64-127h-55c-46 0-55 3-55 18 0 9-9 94-20 187-26 226-29 205 29 205h49z"/><path d="M2394 2351c-77-47-122-242-75-318 29-46 72-46 116 2 78 82 97 274 32 320-28 19-35 19-73-4m726 15c0-1-18-80-40-175-22-94-40-176-40-181 0-15 68-12 100 5 57 29 101 130 103 233 1 76-8 98-45 111-29 10-78 15-78 7m-1736-740c-28-12-64-50-64-67 0-3 37-5 83-3 74 2 82 4 85 22 4 24-30 62-55 62-10-1-32-7-49-14"/></g></svg>